<?xml version="1.0" encoding="UTF-8" standalone="no"?>
<!-- Created with Inkscape (http://www.inkscape.org/) -->
<svg id="svg4219" xmlns:rdf="http://www.w3.org/1999/02/22-rdf-syntax-ns#" xmlns="http://www.w3.org/2000/svg" height="80" width="80" version="1.1" xmlns:cc="http://creativecommons.org/ns#" xmlns:dc="http://purl.org/dc/elements/1.1/" viewBox="0 0 80.000001 79.999998">
 <defs id="defs4221">
  <filter id="filter6104" style="color-interpolation-filters:sRGB" height="1.024" width="1.024" y="-.012" x="-.012">
   <feGaussianBlur id="feGaussianBlur6106" stdDeviation="0.29276609"/>
  </filter>
 </defs>
 <g id="layer1" transform="translate(-35 -912.36)">
  <g id="g5806" stroke-opacity="0" transform="matrix(1.3343 0 0 1.3343 -25.069 -318.33)">
   <circle id="let_BG" filter="url(#filter6104)" cy="952.36" cx="75" r="29.277" fill="#510d0e"/>
   <g id="g5143" transform="matrix(.34448 0 0 .34448 49.053 624.29)">
    <g fill-rule="evenodd">
     <rect id="rect6" transform="rotate(-90)" height="13.132" width="13.132" y="53.369" x="-996.43" fill="#668000"/>
     <g id="let_E" transform="translate(-3.841 -1.7038)" fill="#ff8c00">
      <rect id="rect9" transform="scale(-1,1)" height="13.132" width="13.132" y="970" x="-115.47"/>
      <rect id="rect11" transform="scale(-1,1)" height="13.132" width="13.132" y="985" x="-115.47"/>
      <rect id="rect13" transform="matrix(0,-1,-1,0,0,0)" height="13.132" width="13.132" y="-100.47" x="-998.13"/>
      <rect id="rect15" transform="scale(-1,1)" height="13.132" width="13.132" y="955" x="-115.47"/>
      <rect id="rect17" transform="matrix(0,-1,-1,0,0,0)" height="13.132" width="13.132" y="-85.474" x="-998.13"/>
      <rect id="rect19" height="13.132" width="13.132" y="970" x="42.212"/>
      <rect id="rect21" height="13.132" width="13.132" y="985" x="42.212"/>
      <rect id="rect23" transform="rotate(-90)" height="13.132" width="13.132" y="57.21" x="-998.13"/>
      <rect id="rect25" height="13.132" width="13.132" y="955" x="42.212"/>
      <rect id="rect27" transform="matrix(0,-1,-1,0,0,0)" height="13.132" width="13.132" y="-85.474" x="-983.13"/>
     </g>
     <g id="let_I" transform="translate(-3.841 -1.7038)" fill="#8a0">
      <rect id="rect30" transform="rotate(-90)" height="13.132" width="13.132" y="72.212" x="-953.13"/>
      <rect id="rect32" y="955" x="72.212" height="13.132" width="13.132"/>
      <rect id="rect34" transform="scale(-1)" height="13.132" width="13.132" y="-983.13" x="-85.344"/>
      <rect id="rect36" y="925" x="72.212" height="13.132" width="13.132"/>
      <rect id="rect38" transform="rotate(90)" height="13.132" width="13.132" y="-85.344" x="910"/>
     </g>
     <g id="let_L" transform="translate(-3.841 -1.7038)" fill="#668000">
      <rect id="rect41" transform="rotate(-90)" height="13.132" width="13.132" y="42.212" x="-968.13"/>
      <rect id="rect43" y="970" x="42.212" height="13.132" width="13.132"/>
      <rect id="rect45" transform="rotate(-90)" height="13.132" width="13.132" y="42.212" x="-998.13"/>
      <rect id="rect47" transform="rotate(90)" height="13.132" width="13.132" y="-55.344" x="940"/>
      <rect id="rect49" transform="scale(-1)" height="13.132" width="13.132" y="-938.13" x="-55.344"/>
      <rect id="rect51" y="985" x="57.212" height="13.132" width="13.132"/>
     </g>
    </g>
    <circle id="let_DOT" cx="105.06" cy="929.83" r="6.7764" fill="#cf1b00"/>
   </g>
  </g>
 </g>
</svg>
